<svg xmlns="http://www.w3.org/2000/svg" width="677" height="111" fill="#fff" viewBox="0 0 677 111">
  <path d="M662.445 85.91V1.21h14.52v84.7h-14.52Zm-50.121 1.21c-22.506 0-32.791-11.858-32.791-31.097V1.21h14.52v52.877c0 13.673 6.05 20.086 17.666 20.086h1.21c11.616 0 17.545-6.534 17.545-20.086V1.21h14.52v54.813c0 19.239-10.406 31.097-32.67 31.097Zm-135.345-1.21V1.21h14.52v39.93l38.599-39.93h18.15l-33.517 34.848 34.243 49.852h-18.029l-26.741-38.962-12.705 13.189V85.91h-14.52Zm-84.43 0V1.21h29.282c24.805 0 41.624 15.004 41.624 42.35 0 27.467-16.456 42.35-41.14 42.35h-29.766Zm28.072-12.947c17.182 0 28.314-8.349 28.314-29.403 0-21.175-11.253-29.403-28.314-29.403h-13.552v58.806h13.552ZM346.712 87.12c-21.78 0-33.638-10.769-34.001-29.04h14.399c.242 10.164 7.139 16.093 19.481 16.093h1.089c10.164 0 16.456-4.84 16.456-11.495 0-5.687-3.509-9.68-12.463-11.374l-14.399-2.783c-14.52-2.783-21.78-10.648-21.78-23.595C315.494 11.495 327.11 0 346.591 0c19.602 0 31.581 11.132 32.065 27.225h-14.52c-.968-8.954-7.623-14.278-17.666-14.278h-1.089c-9.196 0-15.488 5.203-15.488 11.616 0 5.929 3.751 8.833 11.253 10.164l14.157 2.541c15.004 2.783 23.716 11.253 23.716 24.805 0 15.004-12.584 25.047-32.307 25.047Zm-91.907 0c-16.335 0-25.047-8.349-25.41-20.449h13.31c.484 6.413 5.445 9.438 11.979 9.438h.847c5.808 0 10.043-2.662 10.043-7.018 0-3.388-2.178-5.687-7.744-6.776l-8.833-1.694c-11.132-2.299-17.787-7.986-17.787-17.908 0-11.616 10.164-18.634 23.111-18.634 15.972 0 24.563 8.591 24.926 20.207h-13.552c-.605-5.324-4.477-9.075-11.132-9.075h-.968c-5.808 0-9.196 3.025-9.196 6.776s2.541 5.566 8.228 6.776l9.801 1.936c10.769 2.178 17.061 7.986 17.061 17.908 0 11.011-9.68 18.513-24.684 18.513Zm-92.489 22.99v-84.7h13.915v7.986c2.904-4.96 9.922-9.196 18.755-9.196 15.851 0 27.346 12.463 27.346 31.46 0 19.118-11.858 31.581-27.709 31.581-8.712 0-15.367-4.235-18.392-8.833v31.702h-13.915Zm30.371-34.485c9.438 0 15.851-7.986 15.851-19.844 0-11.979-6.655-19.965-15.851-19.965h-.605c-9.075 0-15.972 7.986-15.972 19.965 0 11.858 6.897 19.844 15.972 19.844h.605ZM91.001 110.11v-84.7h13.915v7.986c2.904-4.96 9.922-9.196 18.755-9.196 15.851 0 27.346 12.463 27.346 31.46 0 19.118-11.858 31.581-27.709 31.581-8.712 0-15.367-4.235-18.392-8.833v31.702H91.001Zm30.371-34.485c9.438 0 15.851-7.986 15.851-19.844 0-11.979-6.655-19.965-15.851-19.965h-.605c-9.075 0-15.972 7.986-15.972 19.965 0 11.858 6.897 19.844 15.972 19.844h.605ZM0 85.91l33.638-84.7h17.424l33.033 84.7H68.728l-7.623-19.723H22.869L15.246 85.91H0Zm27.83-32.791h28.193L41.987 16.577 27.83 53.119Z"/>
</svg>
