<svg width="512" height="512" viewBox="0 0 512 512" fill="none" xmlns="http://www.w3.org/2000/svg">
<g clip-path="url(#clip0_1497_2717)">
<rect width="512" height="512" rx="256" fill="#0080F7"/>
<g clip-path="url(#clip1_1497_2717)">
<path d="M215.921 209.432V177.018C215.921 174.288 216.945 172.24 219.332 170.876L284.504 133.344C293.376 128.227 303.953 125.839 314.87 125.839C355.814 125.839 381.748 157.572 381.748 191.35C381.748 193.737 381.748 196.467 381.405 199.197L313.846 159.617C309.753 157.229 305.656 157.229 301.563 159.617L215.921 209.432ZM368.097 335.679V258.224C368.097 253.446 366.049 250.034 361.956 247.646L276.314 197.831L304.293 181.793C306.68 180.43 308.728 180.43 311.116 181.793L376.288 219.325C395.055 230.245 407.678 253.446 407.678 275.964C407.678 301.894 392.325 325.78 368.097 335.676V335.679ZM195.79 267.438L167.811 251.061C165.423 249.698 164.399 247.649 164.399 244.919V169.855C164.399 133.347 192.378 105.708 230.252 105.708C244.584 105.708 257.889 110.486 269.151 119.016L201.935 157.914C197.841 160.302 195.793 163.714 195.793 168.492V267.441L195.79 267.438ZM256.013 302.24L215.921 279.722V231.954L256.013 209.436L296.102 231.954V279.722L256.013 302.24ZM281.774 405.968C267.442 405.968 254.138 401.19 242.875 392.66L310.092 353.762C314.185 351.374 316.234 347.962 316.234 343.184V244.235L344.555 260.611C346.942 261.975 347.966 264.023 347.966 266.753V341.817C347.966 378.325 319.645 405.965 281.774 405.965V405.968ZM200.907 329.88L135.736 292.348C116.968 281.427 104.345 258.227 104.345 235.709C104.345 209.436 120.04 185.893 144.265 175.997V253.791C144.265 258.57 146.313 261.981 150.407 264.369L235.709 313.842L207.731 329.88C205.343 331.243 203.295 331.243 200.907 329.88ZM197.156 385.837C158.6 385.837 130.279 356.834 130.279 321.008C130.279 318.278 130.621 315.548 130.961 312.818L198.177 351.717C202.271 354.104 206.367 354.104 210.461 351.717L296.102 302.243V334.658C296.102 337.388 295.078 339.436 292.691 340.8L227.519 378.332C218.647 383.449 208.07 385.837 197.153 385.837H197.156ZM281.774 426.438C323.06 426.438 357.52 397.096 365.371 358.197C403.584 348.302 428.151 312.475 428.151 275.967C428.151 252.082 417.916 228.882 399.491 212.162C401.197 204.997 402.221 197.831 402.221 190.668C402.221 141.877 362.641 105.365 316.918 105.365C307.707 105.365 298.836 106.729 289.964 109.801C274.608 94.7878 253.453 85.2344 230.252 85.2344C188.966 85.2344 154.507 114.576 146.656 153.475C108.442 163.371 83.875 199.197 83.875 235.705C83.875 259.59 94.1101 282.791 112.535 299.51C110.829 306.676 109.805 313.842 109.805 321.005C109.805 369.796 149.386 406.307 195.108 406.307C204.319 406.307 213.191 404.944 222.062 401.871C237.415 416.885 258.57 426.438 281.774 426.438Z" fill="white"/>
</g>
</g>
<defs>
<clipPath id="clip0_1497_2717">
<rect width="512" height="512" rx="256" fill="white"/>
</clipPath>
<clipPath id="clip1_1497_2717">
<rect width="344.276" height="341.204" fill="white" transform="translate(83.875 85.2344)"/>
</clipPath>
</defs>
</svg>
